<svg xmlns="http://www.w3.org/2000/svg" width="537.799" height="623.019" viewBox="0 0 537.799 623.019">
  <path id="Path_1" data-name="Path 1" d="M606.968,292.418a267.892,267.892,0,0,1-7.329,62.517H380.721V646.371h-85.3V354.935H76.5a268.284,268.284,0,0,1-7.329-62.517q0-11.483.974-22.782H235.16L112.11,146.494A269.318,269.318,0,0,1,169.259,83L295.423,209.267V26.728a271.05,271.05,0,0,1,85.3,0V209.267L506.884,83a269.285,269.285,0,0,1,57.143,63.49L440.977,269.637H606Q606.971,280.928,606.968,292.418Z" transform="translate(-69.169 -23.352)" fill="#28d060"/>
</svg>
